<svg viewBox="0 0 80 80" fill="none" xmlns="http://www.w3.org/2000/svg">
  <defs>
    <linearGradient id="kitGrad" x1="0" y1="0" x2="80" y2="80">
      <stop offset="0%" stop-color="#FCC47D"/>
      <stop offset="100%" stop-color="#F9A842"/>
    </linearGradient>
    <linearGradient id="emberGrad" x1="0" y1="0" x2="40" y2="40">
      <stop offset="0%" stop-color="#C97318"/>
      <stop offset="100%" stop-color="#E8922B"/>
    </linearGradient>
  </defs>
  <rect width="80" height="80" rx="20" fill="url(#kitGrad)"/>
  <path d="M18 32C18 28.69 20.69 26 24 26H34L44 36V52C44 55.31 41.31 58 38 58H24C20.69 58 18 55.31 18 52V32Z" fill="white" fill-opacity="0.35"/>
  <path d="M24 30C24 26.69 26.69 24 30 24H42L54 36V54C54 57.31 51.31 60 48 60H30C26.69 60 24 57.31 24 54V30Z" fill="white" fill-opacity="0.55"/>
  <path d="M30 28C30 24.69 32.69 22 36 22H48L62 36V56C62 59.31 59.31 62 56 62H36C32.69 62 30 59.31 30 56V28Z" fill="white" fill-opacity="0.92"/>
  <path d="M48 22L62 36H52C48.69 36 48 34.31 48 31V22Z" fill="white" fill-opacity="0.55"/>
  <path d="M38 46H54" stroke="url(#emberGrad)" stroke-width="2" stroke-linecap="round"/>
  <path d="M38 50H50" stroke="url(#emberGrad)" stroke-width="1.5" stroke-linecap="round" opacity="0.6"/>
  <path d="M38 54H46" stroke="url(#emberGrad)" stroke-width="1.5" stroke-linecap="round" opacity="0.35"/>
</svg>
